<svg xmlns="http://www.w3.org/2000/svg" viewBox="22 -702 2360 714" role="img" aria-label="sesmi"><path fill="#1C1814" d="M245 12C363 12 447 -51 447 -139C447 -308 155 -267 155 -367C155 -399 185 -421 229 -421C281 -421 318 -391 319 -347L433 -373C425 -454 344 -512 232 -512C123 -512 46 -455 46 -372C46 -207 334 -246 334 -143C334 -107 299 -82 252 -82C191 -82 145 -122 142 -176L22 -148C30 -55 122 12 245 12Z M719 12C827 12 916 -46 942 -131L835 -169C823 -122 777 -90 720 -90C648 -90 594 -141 581 -217H949C963 -376 871 -512 712 -512C570 -512 469 -403 469 -250C469 -97 572 12 719 12ZM582 -295C596 -365 646 -412 712 -412C777 -412 829 -365 839 -295Z M1195 12C1313 12 1397 -51 1397 -139C1397 -308 1105 -267 1105 -367C1105 -399 1135 -421 1179 -421C1231 -421 1268 -391 1269 -347L1383 -373C1375 -454 1294 -512 1182 -512C1073 -512 996 -455 996 -372C996 -207 1284 -246 1284 -143C1284 -107 1249 -82 1202 -82C1141 -82 1095 -122 1092 -176L972 -148C980 -55 1072 12 1195 12Z M1446 0H1551V-276C1551 -353 1599 -408 1665 -408C1723 -408 1765 -361 1765 -295V0H1868V-280C1868 -354 1914 -408 1978 -408C2035 -408 2076 -361 2076 -297V0H2181V-311C2181 -428 2107 -512 2004 -512C1934 -512 1873 -473 1848 -416C1822 -473 1762 -512 1694 -512C1627 -512 1570 -474 1547 -419L1529 -500H1446Z M2257 -500V0H2362V-500Z"/><rect fill="#1C1814" x="2237.0" y="-702.0" width="145" height="145"/></svg>
